<svg xmlns="http://www.w3.org/2000/svg" fill="none" viewBox="0 0 128 128"><rect width="128" height="128" fill="#6366f1" rx="24"/><path fill="#fff" d="M40 36h48a8 8 0 0 1 8 8v40a8 8 0 0 1-8 8H40a8 8 0 0 1-8-8V44a8 8 0 0 1 8-8z" opacity=".9"/><rect width="40" height="3" x="44" y="50" fill="#6366f1" opacity=".5" rx="1.5"/><rect width="32" height="3" x="44" y="58" fill="#6366f1" opacity=".5" rx="1.5"/><rect width="36" height="3" x="44" y="66" fill="#6366f1" opacity=".5" rx="1.5"/><rect width="24" height="3" x="44" y="74" fill="#6366f1" opacity=".5" rx="1.5"/><circle cx="88" cy="88" r="20" fill="#6366f1"/><path stroke="#fff" stroke-linecap="round" stroke-width="3" d="M88 78v20M78 88h20"/></svg>