<svg xmlns="http://www.w3.org/2000/svg" viewBox="0 0 128 128" fill="none">
  <rect width="128" height="128" rx="24" fill="#6366f1"/>
  <path d="M40 36h48a8 8 0 0 1 8 8v40a8 8 0 0 1-8 8H40a8 8 0 0 1-8-8V44a8 8 0 0 1 8-8z" fill="white" opacity="0.9"/>
  <rect x="44" y="50" width="40" height="3" rx="1.5" fill="#6366f1" opacity="0.5"/>
  <rect x="44" y="58" width="32" height="3" rx="1.5" fill="#6366f1" opacity="0.5"/>
  <rect x="44" y="66" width="36" height="3" rx="1.5" fill="#6366f1" opacity="0.5"/>
  <rect x="44" y="74" width="24" height="3" rx="1.5" fill="#6366f1" opacity="0.5"/>
  <circle cx="88" cy="88" r="20" fill="#6366f1"/>
  <path d="M88 78v20M78 88h20" stroke="white" stroke-width="3" stroke-linecap="round"/>
</svg>
